<?xml version="1.0" standalone="no"?>
<!DOCTYPE svg PUBLIC "-//W3C//DTD SVG 1.1//EN" "http://www.w3.org/Graphics/SVG/1.1/DTD/svg11.dtd" >
<svg xmlns="http://www.w3.org/2000/svg">
<metadata>Generated by IcoMoon</metadata>
<defs>
<font id="icomoon" horiz-adv-x="1024">
<font-face units-per-em="1024" ascent="960" descent="-64" />
<missing-glyph horiz-adv-x="1024" />
<glyph unicode="&#x20;" horiz-adv-x="512" d="" />
<glyph unicode="&#xe900;" glyph-name="email" d="M631.91 471.392l328.064 263.936v-572.16l-328.064 308.224zM442.47 430.88l49.472-39.808 0.32 0.384c5.44-4.416 12.16-7.488 19.712-7.488 7.616 0 14.272 3.072 19.776 7.488l0.32-0.384 49.472 39.808 322.368-302.912h-783.872l322.432 302.912zM392.102 471.392l-328.128-308.224v572.352l328.128-264.128zM511.974 457.056l-386.24 310.912h772.736l-386.496-310.912zM927.974 831.968h-832c-52.928 0-96-43.008-96-96v-576c0-52.928 43.072-96 96-96h832c52.992 0 96 43.072 96 96v576c0 52.992-43.008 96-96 96v0z" />
<glyph unicode="&#xe901;" glyph-name="emailad" d="M495.779 372.792h0.936c6.88 0.373 13.353 2.612 19.256 6.716 6.229 4.338 11.317 10.588 15.755 20.616l164.59 496.176c2.28 6.903 1.588 14.599-1.873 20.802-3.501 6.203-9.363 10.168-15.795 10.681-15.958 1.259-32.486-2.985-46.491-12.267l-596.725-395.989c-15.103-9.981-26.828-25.233-33.789-43.983-2.524-6.716-2.117-14.412 1.058-20.756 3.175-6.297 8.793-10.588 15.103-11.521l475.328-70.289c0.896-0.14 1.791-0.187 2.646-0.187zM990.356 412.374l-206.277 410.635c-3.949 7.789-11.439 12.22-19.378 11.66-7.898-0.746-14.737-6.576-17.546-15.019l-153.965-464.179-1.913-4.384c-6.921-15.205-17.261-27.892-29.922-36.66-12.701-8.862-27.357-13.526-42.582-13.526l-4.152 0.233-446.994 66.091c-7.653 1.166-15.307-2.752-19.622-10.121-4.356-7.369-4.641-16.884-0.773-24.58l135.279-269.263h-61.228c-11.317 0-20.477-10.448-20.477-23.321v-46.642c0-12.873 9.16-23.321 20.477-23.321h777.598c11.317 0 20.477 10.448 20.477 23.321v46.642c0 12.873-9.16 23.321-20.477 23.321h-272.715l334.472 221.922c38.715 25.7 52.027 82.743 29.718 127.192z" />
<glyph unicode="&#xe902;" glyph-name="lock" d="M555.38 233.519l14.662-132.003c0.745-6.609-1.35-13.172-5.772-18.153-4.422-4.887-10.752-7.727-17.361-7.727h-93.091c-6.609 0-12.893 2.839-17.315 7.727-4.422 4.98-6.516 11.543-5.818 18.153l14.708 132.003c-23.831 17.361-38.121 44.777-38.121 74.845 0 51.34 41.751 93.091 93.091 93.091s93.091-41.751 93.091-93.091c0-30.068-14.243-57.484-38.074-74.845zM810.667 576v85.333c0 164.736-133.973 298.667-298.667 298.667s-298.667-133.931-298.667-298.667v-21.333c0-11.776 9.557-21.333 21.333-21.333h85.333c11.819 0 21.333 9.557 21.333 21.333v21.333c0 94.123 76.587 170.667 170.667 170.667 94.123 0 170.667-76.544 170.667-170.667v-85.333h-533.333c-11.776 0-21.333-9.515-21.333-21.333v-533.333c0-47.019 38.272-85.333 85.333-85.333h597.333c47.061 0 85.333 38.315 85.333 85.333v533.333c0 11.819-9.515 21.333-21.333 21.333h-64z" />
<glyph unicode="&#xe903;" glyph-name="pencil" d="M400.627 61.875l-329.728-54.976 54.976 329.728 546.112 546.112 274.752-274.752-546.112-546.112zM1023.987 607.987c0 8.832-3.584 16.896-9.408 22.656l-319.936 319.936c-5.76 5.824-13.824 9.408-22.656 9.408s-16.832-3.584-22.592-9.344l-576-576c-4.608-4.608-7.232-10.816-8.384-17.472l-0.576 0.064-64-384 0.576-0.064c-0.256-1.792-1.024-3.328-1.024-5.184 0-17.664 14.336-32 32-32 1.856 0 3.392 0.768 5.184 1.024l0.064-0.576 384 64-0.064 0.576c6.656 1.152 12.864 3.776 17.472 8.384l576 576c5.76 5.76 9.344 13.76 9.344 22.592v0zM342.605 150.643l-127.936 127.936c-5.824 5.824-13.824 9.408-22.656 9.408-17.664 0-32-14.336-32-32 0-8.832 3.584-16.832 9.344-22.592l128-128c5.824-5.824 13.824-9.408 22.656-9.408 17.664 0 32 14.336 32 32 0 8.832-3.584 16.832-9.408 22.656z" />
<glyph unicode="&#xe904;" glyph-name="person" d="M171.786 89.604c13.759 25.136 29.545 46.481 47.195 62.98 55.541 51.92 136.324 86.58 198.093 99.659 77.395 16.388 91.494 145.034 26.29 186.989-57.203 36.807-95.401 113.188-95.401 199.472 0 128.583 73.084 221.848 168.935 221.848 95.494 0 168.935-94 168.935-221.848 0-86.284-38.198-162.665-95.401-199.472-65.204-41.955-51.105-170.601 26.29-186.989 61.768-13.079 142.552-47.74 198.093-99.659 17.65-16.499 33.436-37.844 47.195-62.98 13.517-24.694 22.676-54.156 22.676-54.156h-729.048c0 0 2.634 29.462 16.151 54.156zM32.472-5.297c-5.958-32.421 17.682-58.703 48.95-58.703v0h870.948c32.992 0 54.597 27.976 48.95 58.703v0c-1.79 9.743-5.511 25.527-11.581 45.432-10.057 32.977-23.328 65.994-40.402 97.186-18.524 33.841-40.503 63.561-66.519 87.88-57.997 54.216-128.271 90.67-194.505 111.213-14.931 4.631-29.656 8.453-43.989 11.488 0 0 0 10.543 0 10.543 86.858 55.888 141.044 161.415 141.044 280.258 0 178.132-111.852 321.296-268.472 321.296-156.896 0-268.472-142.386-268.472-321.296 0-118.843 54.186-224.37 141.044-280.258 0 0 0-10.543 0-10.543-77.916-16.499-167.423-56.264-238.494-122.701-26.016-24.32-47.995-54.039-66.519-87.88-17.074-31.192-30.345-64.209-40.402-97.186-6.070-19.905-9.791-35.689-11.581-45.432v0z" />
<glyph unicode="&#xe905;" glyph-name="power" d="M388.174 857.625v-92.345c-154.683-47.53-267.13-191.534-267.13-361.802 0-209.004 169.431-378.435 378.435-378.435s378.435 169.431 378.435 378.435c0 170.267-112.447 314.271-267.13 361.802v92.345c204.444-49.934 356.174-234.321 356.174-454.146 0-258.181-209.297-467.478-467.478-467.478s-467.478 209.297-467.478 467.478c0 219.825 151.73 404.213 356.174 454.146zM454.957 915.675c0 24.48 19.762 44.325 44.522 44.325 24.589 0 44.522-19.805 44.522-44.325v-401.089c0-24.48-19.762-44.325-44.522-44.325-24.589 0-44.522 19.805-44.522 44.325v401.089z" />
<glyph unicode="&#xe906;" glyph-name="starbold" d="M511.96 115.992l-190.527-99.544c-86.187-45.030-142.66-3.921-126.155 91.716l36.291 210.278-154.14 149.316c-69.727 67.544-48.303 133.556 48.224 147.495l213.016 30.761 95.011 191.317c43.233 87.055 113.348 87.014 156.56 0l95.011-191.317 213.016-30.761c96.36-13.915 117.733-80.161 48.224-147.495l-154.14-149.316 36.291-210.278c16.514-95.683-39.819-136.824-126.155-91.716l-190.527 99.544z" />
<glyph unicode="&#xe907;" glyph-name="trash" d="M815.059 88.823c0-17.83-13.673-32.346-30.479-32.346h-541.395c-16.806 0-30.479 14.517-30.479 32.346v690.477h602.353v-690.477zM321.672 899.771h384.422l30.118-60.235h-444.657l30.118 60.235zM965.647 839.535h-162.093l-51.923 103.846-0.241-0.181c-5 9.879-14.938 16.806-26.684 16.806h-421.647c-11.746 0-21.685-6.927-26.684-16.806l-0.241 0.181-51.923-103.846h-162.093c-16.625 0-30.118-13.493-30.118-30.118s13.493-30.118 30.118-30.118h90.353v-690.477c0-51.080 40.659-92.582 90.714-92.582h541.395c49.995 0 90.714 41.502 90.714 92.582v690.477h90.353c16.625 0 30.118 13.493 30.118 30.118s-13.493 30.118-30.118 30.118v0zM513.882 658.824c-16.625 0-30.118-13.493-30.118-30.118v-421.647c0-16.625 13.493-30.118 30.118-30.118s30.118 13.493 30.118 30.118v421.647c0 16.625-13.493 30.118-30.118 30.118zM363.294 658.824c-16.625 0-30.118-13.493-30.118-30.118v-421.647c0-16.625 13.493-30.118 30.118-30.118s30.118 13.493 30.118 30.118v421.647c0 16.625-13.493 30.118-30.118 30.118zM664.471 658.824c-16.625 0-30.118-13.493-30.118-30.118v-421.647c0-16.625 13.493-30.118 30.118-30.118s30.118 13.493 30.118 30.118v421.647c0 16.625-13.493 30.118-30.118 30.118z" />
<glyph unicode="&#xe908;" glyph-name="write" d="M976.833 926.504c-8.61 3.212-18.243 1.164-24.712-5.306-139.477-139.542-246.004-186.693-358.767-236.636l-5.492-2.467c-4.468-1.955-8.237-5.353-10.704-9.588l-22.106-38.027c-0.977 2.234-2.094 4.561-3.211 6.889-5.585 11.357-19.267 16.105-30.576 10.892-68.412-31.278-122.444-55.994-179.872-110.778-4.375-4.236-6.981-10.1-7.167-16.244-0.093-4.049-0.419-8.657-0.745-13.591-0.884-11.776-1.862-25.786-0.838-40.541-4.98 3.025-10.239 6.842-15.59 11.404-4.887 4.143-11.123 6.097-17.499 5.446-6.376-0.698-12.147-3.91-16.009-8.937-47.004-60.928-82.42-135.446-105.41-221.555-2.653-9.821 1.443-20.294 10.052-25.693 8.656-5.399 19.779-4.561 27.551 2.048 73.485 62.976 128.773 104.261 177.732 140.846 80.466 60.136 156.463 116.968 293.055 253.625 8.842 8.75 24.107 8.75 32.903 0 4.421-4.422 6.841-10.24 6.841-16.477 0-6.191-2.42-12.055-6.841-16.43-139.058-139.124-216.266-196.84-298.034-257.953-54.497-40.727-228.18-185.483-236.836-193.302-62.548-56.366-131.286-121.948-209.75-200.377-9.075-9.123-9.075-23.831 0-32.907 4.561-4.561 10.518-6.842 16.475-6.842s11.914 2.281 16.428 6.842c66.83 66.792 126.585 124.276 181.362 174.591 11.774-2.839 28.156-5.539 49.75-5.539 88.47 0 237.255 43.334 443.701 249.855 321.024 321.022 309.948 566.129 309.297 576.415-0.558 9.123-6.422 17.082-14.985 20.34z" />
<glyph unicode="&#xe909;" glyph-name="arrow-down" d="M826.424 578.483c-7.258 7.258-18.848 7.296-26.296 0.38l-0.076 0.076-272.080-253.916-272.118 253.84c-7.448 6.916-19.038 6.878-26.296-0.38-7.41-7.41-7.41-19.456 0-26.866 0.152-0.152 0.38-0.228 0.532-0.38l-0.076-0.076 285.076-265.924c7.296-6.764 18.506-6.764 25.802 0l0.076-0.076 284.886 266.076c0.19 0.152 0.418 0.228 0.57 0.38 7.41 7.41 7.41 19.456 0 26.866z" />
<glyph unicode="&#xe90a;" glyph-name="arrow-up" d="M197.576 285.517c7.258-7.258 18.848-7.296 26.296-0.38l0.076-0.076 272.080 253.916 272.118-253.84c7.448-6.916 19.038-6.878 26.296 0.38 7.41 7.41 7.41 19.456 0 26.866-0.152 0.152-0.38 0.228-0.532 0.38l0.076 0.076-285.076 265.924c-7.296 6.764-18.506 6.764-25.802 0l-0.076 0.076-284.886-266.076c-0.19-0.152-0.418-0.228-0.57-0.38-7.41-7.41-7.41-19.456 0-26.866z" />
<glyph unicode="&#xe90b;" glyph-name="image-upload" d="M781.666 512c-10.5 0-19.021-8.522-19.021-19.021v-247.279c0-10.462-8.56-19.021-19.021-19.021h-494.559c-10.5 0-19.021 8.56-19.021 19.021v247.279c0 10.5-8.522 19.021-19.021 19.021s-19.021-8.522-19.021-19.021v-247.279c0-31.462 25.603-57.064 57.064-57.064h494.559c31.462 0 57.064 25.603 57.064 57.064v247.279c0 10.5-8.522 19.021-19.021 19.021M371.021 609.785c5.706 0 10.69 2.663 14.152 6.619l0.152-0.114 99.825 114.053v-329.794c0-10.5 8.522-19.021 19.021-19.021s19.021 8.522 19.021 19.021v329.794l99.825-114.053 0.152 0.114c3.462-3.995 8.446-6.619 14.152-6.619 10.5 0 19.021 8.522 19.021 19.021 0 4.793-1.94 9.054-4.87 12.402l0.152 0.114-133.15 152.172-0.152-0.114c-3.462 3.956-8.446 6.619-14.152 6.619s-10.69-2.663-14.152-6.619l-0.152 0.114-133.15-152.172 0.152-0.114c-2.929-3.348-4.87-7.609-4.87-12.402 0-10.5 8.522-19.021 19.021-19.021" />
<glyph unicode="&#xe90c;" glyph-name="fb" d="M172.154 32c-24.393 0-44.154 19.773-44.154 44.157v711.69c0 24.389 19.764 44.154 44.154 44.154h711.695c24.383 0 44.151-19.764 44.151-44.154v-711.69c0-24.386-19.771-44.157-44.151-44.157h-203.861v309.804h103.987l15.571 120.736h-119.557v77.082c0 34.956 9.707 58.777 59.833 58.777l63.934 0.028v107.987c-11.057 1.471-49.009 4.759-93.163 4.759-92.179 0-155.287-56.266-155.287-159.594v-89.040h-104.254v-120.736h104.254v-309.804h-383.152z" />
<glyph unicode="&#xe90d;" glyph-name="instagram" d="M512.001 896c121.669 0 136.925-0.516 184.709-2.696 47.684-2.175 80.251-9.749 108.747-20.824 29.46-11.447 54.444-26.766 79.351-51.671 24.906-24.907 40.224-49.891 51.673-79.351 11.074-28.496 18.648-61.063 20.823-108.747 2.18-47.784 2.696-63.040 2.696-184.711 0-121.669-0.516-136.925-2.696-184.709-2.175-47.684-9.749-80.251-20.823-108.747-11.449-29.46-26.768-54.444-51.673-79.351-24.907-24.906-49.891-40.224-79.351-51.673-28.496-11.074-61.063-18.648-108.747-20.823-47.784-2.18-63.040-2.696-184.709-2.696s-136.927 0.516-184.711 2.696c-47.684 2.175-80.251 9.749-108.747 20.823-29.46 11.449-54.444 26.768-79.351 51.673-24.906 24.907-40.224 49.891-51.671 79.351-11.075 28.496-18.649 61.063-20.824 108.747-2.18 47.784-2.696 63.040-2.696 184.709s0.516 136.927 2.696 184.711c2.175 47.684 9.749 80.251 20.824 108.747 11.447 29.46 26.766 54.444 51.671 79.351 24.907 24.906 49.891 40.224 79.351 51.671 28.496 11.075 61.063 18.649 108.747 20.824 47.784 2.18 63.040 2.696 184.711 2.696zM512.001 815.279c-119.622 0-133.792-0.457-181.031-2.612-43.68-1.992-67.401-9.29-83.187-15.425-20.911-8.127-35.835-17.835-51.511-33.513-15.678-15.676-25.386-30.6-33.513-51.511-6.135-15.786-13.434-39.508-15.425-83.187-2.155-47.24-2.612-61.41-2.612-181.031s0.457-133.79 2.612-181.030c1.992-43.68 9.29-67.401 15.425-83.187 8.127-20.911 17.837-35.835 33.513-51.511 15.676-15.678 30.6-25.386 51.511-33.513 15.786-6.135 39.508-13.434 83.187-15.425 47.234-2.155 61.401-2.612 181.031-2.612s133.797 0.457 181.030 2.612c43.68 1.992 67.401 9.29 83.187 15.425 20.911 8.127 35.835 17.835 51.511 33.513 15.678 15.676 25.386 30.6 33.513 51.511 6.135 15.786 13.434 39.508 15.425 83.187 2.155 47.24 2.612 61.41 2.612 181.030 0 119.622-0.457 133.792-2.612 181.031-1.992 43.68-9.29 67.401-15.425 83.187-8.127 20.911-17.835 35.835-33.513 51.511-15.676 15.678-30.6 25.386-51.511 33.513-15.786 6.135-39.508 13.434-83.187 15.425-47.24 2.155-61.41 2.612-181.030 2.612zM512.001 678.054c127.055 0 230.053-102.998 230.053-230.055 0-127.055-102.998-230.053-230.053-230.053-127.057 0-230.055 102.998-230.055 230.053 0 127.057 102.998 230.055 230.055 230.055zM512.001 298.667c82.474 0 149.332 66.858 149.332 149.332 0 82.476-66.858 149.334-149.332 149.334-82.476 0-149.334-66.858-149.334-149.334 0-82.474 66.858-149.332 149.334-149.332zM804.904 687.143c0-29.691-24.070-53.759-53.761-53.759-29.689 0-53.759 24.068-53.759 53.759s24.070 53.761 53.759 53.761c29.691 0 53.761-24.070 53.761-53.761z" />
<glyph unicode="&#xe90e;" glyph-name="twitter" d="M1024 762.981c-37.625-17.134-78.136-28.722-120.63-33.899 43.395 26.626 76.693 68.846 92.381 119.14-40.631-24.654-85.529-42.59-133.492-52.205-38.226 41.85-92.861 67.983-153.327 67.983-115.942 0-210.005-96.458-210.005-215.414 0-16.888 1.803-33.283 5.409-49.061-174.604 8.999-329.373 94.671-433.053 225.152-18.091-31.927-28.429-68.969-28.429-108.416 0-74.701 37.084-140.651 93.462-179.296-34.38 1.048-66.836 10.848-95.205 26.873v-2.65c0-104.409 72.426-191.499 168.593-211.222-17.611-5.054-36.183-7.581-55.356-7.581-13.524 0-26.746 1.294-39.549 3.821 26.746-85.549 104.281-147.862 196.241-149.526-71.885-57.813-162.523-92.267-260.914-92.267-16.949 0-33.719 0.986-50.127 2.958 92.982-61.018 203.454-96.705 322.040-96.705 386.472 0 597.739 328.205 597.739 612.896 0 9.368-0.18 18.737-0.541 27.921 41.051 30.386 76.693 68.291 104.762 111.497z" />
<glyph unicode="&#xe90f;" glyph-name="youtube" d="M406.332 303.502l-0.032 289.796 276.713-145.397-276.681-144.398zM973.199 745.883c-38.95 41.095-82.604 41.289-102.607 43.674-143.317 10.443-358.293 10.443-358.293 10.443-0.448 0-215.424 0-358.741-10.443-20.035-2.385-63.657-2.579-102.639-43.674-30.693-31.297-40.678-102.368-40.678-102.368s-10.242-83.48-10.242-166.928v-78.259c0-83.48 10.242-166.928 10.242-166.928s9.985-71.071 40.678-102.368c38.982-41.095 90.157-39.806 112.945-44.093 81.932-7.929 348.211-10.379 348.211-10.379s215.2 0.322 358.517 10.765c20.003 2.417 63.657 2.611 102.607 43.706 30.693 31.297 40.71 102.368 40.71 102.368s10.242 83.448 10.242 166.928v78.259c0 83.448-10.242 166.928-10.242 166.928s-10.017 71.071-40.71 102.368z" />
<glyph unicode="&#xe910;" glyph-name="cart" d="M264.651 311.192c-10.543-13.229-16.27-29.558-16.27-46.43 0-41.025 33.26-74.286 74.286-74.286h529.143c17.673 0 32 14.327 32 32s-14.327 32-32 32h-529.143c-5.679 0-10.286 4.606-10.286 10.286 0 2.359 0.797 4.63 2.282 6.494l66.895 83.609c6.513 8.14 8.652 18.943 5.733 28.952l-121.333 416c-11.116 38.045-45.955 64.183-85.577 64.183h-52.381c-17.673 0-32-14.327-32-32s14.327-32 32-32h52.381c11.179 0 21.001-7.369 24.141-18.118l116.672-400.020-56.543-70.671zM356.571 342.857h382.781c34.543 0 65.98 19.936 80.661 51.198l132.94 282.411c4.652 9.978 7.047 20.765 7.047 31.648v5.41c0 41.025-33.26 74.286-74.286 74.286h-155.39c-17.673 0-32-14.327-32-32s14.327-32 32-32h155.39c5.679 0 10.286-4.606 10.286-10.286v-5.41c0-1.531-0.346-3.088-1.003-4.497l-132.902-282.331c-4.14-8.816-12.991-14.429-22.743-14.429h-382.781c-17.673 0-32-14.327-32-32s14.327-32 32-32zM642.286 810.667h-400c-17.673 0-32-14.327-32-32s14.327-32 32-32h400c17.673 0 32 14.327 32 32s-14.327 32-32 32zM426.667 89.143c0-49.244-39.917-89.143-89.143-89.143s-89.143 39.899-89.143 89.143c0 49.244 39.917 89.143 89.143 89.143s89.143-39.899 89.143-89.143zM362.667 89.143c0 13.891-11.257 25.143-25.143 25.143s-25.143-11.251-25.143-25.143c0-13.891 11.257-25.143 25.143-25.143s25.143 11.251 25.143 25.143zM883.81 89.143c0-49.244-39.917-89.143-89.143-89.143s-89.143 39.899-89.143 89.143c0 49.244 39.917 89.143 89.143 89.143s89.143-39.899 89.143-89.143zM819.81 89.143c0 13.891-11.257 25.143-25.143 25.143s-25.143-11.251-25.143-25.143c0-13.891 11.257-25.143 25.143-25.143s25.143 11.251 25.143 25.143z" />
<glyph unicode="&#xe911;" glyph-name="phone" d="M721.2 329.6c-22.356 7.644-49.822 0.622-63.422-13.378l-89.956-67.867c-104.311 55.689-168.578 119.911-223.511 223.422l65.911 87.644c17.111 17.067 23.244 42.044 15.911 65.511-15.111 45.822-22.8 93.867-22.8 142.889 0 35.378-28.8 64.178-64.222 64.178h-146.889c-35.422 0-64.222-28.8-64.222-64.178 0-405.733 330.089-735.822 735.822-735.822 35.378 0 64.178 28.8 64.178 64.178v146.533c0 35.378-28.8 64.178-64.178 64.178-48.978 0-97.067 7.644-142.622 22.711z" />
<glyph unicode="&#xe912;" glyph-name="company" d="M579.692 231.385v54.154h148.923v-54.154h-148.923zM295.385 610.462v54.154h148.923v-54.154h-148.923zM295.385 420.923v54.154h148.923v-54.154h-148.923zM295.385 231.385v54.154h148.923v-54.154h-148.923zM579.692 420.923v54.154h148.923v-54.154h-148.923zM579.692 610.462v54.154h148.923v-54.154h-148.923zM850.462 800h-676.923c-7.473 0-13.538-6.065-13.538-13.538v-676.923c0-7.473 6.065-13.538 13.538-13.538h676.923c7.473 0 13.538 6.065 13.538 13.538v676.923c0 7.473-6.065 13.538-13.538 13.538v0z" />
<glyph unicode="&#xe913;" glyph-name="irs-icn" d="M192 768h640c35.346 0 64-28.654 64-64v-480c0-35.346-28.654-64-64-64h-640c-35.346 0-64 28.654-64 64v480c0 35.346 28.654 64 64 64v0zM752 416c44.183 0 80 28.654 80 64s-35.817 64-80 64c-44.183 0-80-28.654-80-64s35.817-64 80-64z" />
<glyph unicode="&#xe914;" glyph-name="reffler-icn" d="M128 230.37v88.388c24.952 0 43.699 0 67.664 0 38.377 0 81.771 16.626 110.152 41.313 48.914 42.547 140.006 179.543 207.187 261.24 44.787 54.465 99.321 89.156 163.602 104.072 0.54 33.915 0.81 58.787 0.81 74.617 75.59-42.768 144.669-81.856 218.585-123.67-72.894-41.509-142.549-81.178-216.147-123.089-1.612 25.004-1.158 35.543-3.248 68.069-42.521-9.779-65.357-29.041-86.925-54.611-63.447-75.234-121.614-161.93-183.592-238.378-71.032-87.613-163.382-119.164-278.088-97.951zM682.123 385.336c93.637-53.394 164.93-95.526 213.877-126.396-47.676-30.263-118.968-76.945-213.877-140.045v60.523l-61.712 51.367c-61.593 52.955-108.396 93.928-140.411 122.918 16.842 25.074 37.583 52.839 62.223 83.296l139.901-131.125v79.461zM128 601.022v95.953c141.901 27.649 223.165-10.506 301.098-120.233-18.784-23.416-39.093-51.763-63.516-82.176-63.322 85.535-131.895 136.156-237.582 106.455z" />
<glyph unicode="&#xe915;" glyph-name="home" d="M1024 369.556l-512 397.426-512-397.428v162.038l512 397.426 512-397.428zM896 384v-384h-256v256h-256v-256h-256v384l384 288z" />
<glyph unicode="&#xe916;" glyph-name="image" d="M959.884 832c0.040-0.034 0.082-0.076 0.116-0.116v-767.77c-0.034-0.040-0.076-0.082-0.116-0.116h-895.77c-0.040 0.034-0.082 0.076-0.114 0.116v767.772c0.034 0.040 0.076 0.082 0.114 0.114h895.77zM960 896h-896c-35.2 0-64-28.8-64-64v-768c0-35.2 28.8-64 64-64h896c35.2 0 64 28.8 64 64v768c0 35.2-28.8 64-64 64v0zM832 672c0-53.020-42.98-96-96-96s-96 42.98-96 96 42.98 96 96 96 96-42.98 96-96zM896 128h-768v128l224 384 256-320h64l224 192z" />
<glyph unicode="&#xe917;" glyph-name="images" horiz-adv-x="1152" d="M1088 832h-64v64c0 35.2-28.8 64-64 64h-896c-35.2 0-64-28.8-64-64v-768c0-35.2 28.8-64 64-64h64v-64c0-35.2 28.8-64 64-64h896c35.2 0 64 28.8 64 64v768c0 35.2-28.8 64-64 64zM128 768v-640h-63.886c-0.040 0.034-0.082 0.076-0.114 0.116v767.77c0.034 0.040 0.076 0.082 0.114 0.114h895.77c0.040-0.034 0.082-0.076 0.116-0.116v-63.884h-768c-35.2 0-64-28.8-64-64v0zM1088 0.116c-0.034-0.040-0.076-0.082-0.116-0.116h-895.77c-0.040 0.034-0.082 0.076-0.114 0.116v767.77c0.034 0.040 0.076 0.082 0.114 0.114h895.77c0.040-0.034 0.082-0.076 0.116-0.116v-767.768zM960 608c0-53.020-42.98-96-96-96s-96 42.98-96 96 42.98 96 96 96 96-42.98 96-96zM1024 64h-768v128l224 384 256-320h64l224 192z" />
<glyph unicode="&#xe918;" glyph-name="account" d="M512-21.333c-259.206 0-469.333 210.128-469.333 469.333s210.128 469.333 469.333 469.333c259.206 0 469.333-210.128 469.333-469.333s-210.128-469.333-469.333-469.333zM512 465.067c56.554 0 102.4 45.846 102.4 102.4s-45.846 102.4-102.4 102.4c-56.554 0-102.4-45.846-102.4-102.4s45.846-102.4 102.4-102.4zM682.667 260.267c0 94.257-76.41 170.667-170.667 170.667s-170.667-76.41-170.667-170.667c18.99-22.756 75.879-34.133 170.667-34.133s151.676 11.378 170.667 34.133z" />
<glyph unicode="&#xe919;" glyph-name="earn" d="M512-21.333c-259.206 0-469.333 210.128-469.333 469.333s210.128 469.333 469.333 469.333c259.206 0 469.333-210.128 469.333-469.333s-210.128-469.333-469.333-469.333zM550.827 184.277v64.512c71.68 11.349 111.104 62.123 111.104 117.077 0 53.76-34.048 98.56-109.312 115.285l-54.357 12.544c-28.075 5.973-41.216 21.504-41.216 40.021 0 24.491 20.907 46.592 59.136 46.592 48.981 0 64.512-34.645 68.096-55.552l73.472 20.907c-8.363 40.021-38.229 87.808-106.923 100.352v65.707h-60.928v-63.915c-63.915-10.155-112.896-56.747-112.896-120.064 0-57.344 40.021-97.963 104.533-112.299l54.955-11.947c29.867-6.571 44.8-22.101 44.8-42.411 0-26.283-22.699-44.8-61.525-44.8-54.955 0-80.043 34.645-83.627 72.277l-74.069-17.92c5.376-50.773 44.8-111.104 127.829-122.453v-63.915h60.928z" />
<glyph unicode="&#xe91a;" glyph-name="info" d="M512-21.333c-259.206 0-469.333 210.128-469.333 469.333s210.128 469.333 469.333 469.333c259.206 0 469.333-210.128 469.333-469.333s-210.128-469.333-469.333-469.333zM504.948 723.992c-37.423 3.682-74.542-9.722-101.794-36.759s-41.972-65.065-40.369-104.285h64.684c-1.336 21.664 6.476 42.853 21.379 57.988s35.401 22.699 56.1 20.7c38.384 0 71.081-20.043 71.081-66.811 0-34.89-19.903-51.221-51.889-74.234-38.137-22.801-62.118-64.731-63.262-110.609v-25.982h64.684v20.043c0 40.086 14.216 51.964 53.311 83.142 40.077 22.189 66.004 64.779 68.238 112.093-1.052 37.014-17.18 71.799-44.329 95.617s-62.742 34.403-97.833 29.096zM512.301 309.185c-30.931-1.77-54.757-27.957-53.594-58.904s26.89-55.273 57.866-54.716c30.977 0.556 55.812 25.79 55.862 56.759 0.27 15.737-6.092 30.862-17.531 41.678s-26.9 16.326-42.604 15.183v0z" />
<glyph unicode="&#xe91b;" glyph-name="connection" horiz-adv-x="1280" d="M640 384c105.87 0 201.87-43.066 271.402-112.598l-90.468-90.468c-46.354 46.356-110.356 75.066-180.934 75.066s-134.578-28.71-180.934-75.066l-90.468 90.468c69.532 69.532 165.532 112.598 271.402 112.598zM187.452 452.548c120.88 120.88 281.598 187.452 452.548 187.452s331.668-66.572 452.55-187.452l-90.51-90.508c-96.706 96.704-225.28 149.96-362.040 149.96-136.762 0-265.334-53.256-362.038-149.962l-90.51 90.51zM988.784 825.562c106.702-45.132 202.516-109.728 284.782-191.996v0l-90.508-90.508c-145.056 145.056-337.92 224.942-543.058 224.942-205.14 0-398-79.886-543.058-224.942l-90.51 90.51c82.268 82.266 178.082 146.862 284.784 191.994 110.504 46.738 227.852 70.438 348.784 70.438s238.278-23.7 348.784-70.438zM576 64c0 35.346 28.654 64 64 64s64-28.654 64-64c0-35.346-28.654-64-64-64s-64 28.654-64 64z" />
<glyph unicode="&#xe91c;" glyph-name="rewards" d="M512-21.333c-259.206 0-469.333 210.128-469.333 469.333s210.128 469.333 469.333 469.333c259.206 0 469.333-210.128 469.333-469.333s-210.128-469.333-469.333-469.333zM336.762 640c-12.624 0-22.857-10.233-22.857-22.857v0-45.714c0-12.624 10.233-22.857 22.857-22.857h350.476c12.624 0 22.857 10.233 22.857 22.857v0 45.714c0 12.624-10.233 22.857-22.857 22.857h-350.476zM352 518.095c-12.624 0-22.857-10.233-22.857-22.857v-198.095c0-12.624 10.233-22.857 22.857-22.857h320c12.624 0 22.857 10.233 22.857 22.857v0 198.095c0 12.624-10.233 22.857-22.857 22.857h-320z" />
<glyph unicode="&#xe91d;" glyph-name="feed" d="M384 448c0 70.692 57.308 128 128 128s128-57.308 128-128c0-70.692-57.308-128-128-128s-128 57.308-128 128zM664.348 729.474c99.852-54.158 167.652-159.898 167.652-281.474s-67.8-227.316-167.652-281.474c44.066 70.126 71.652 170.27 71.652 281.474s-27.586 211.348-71.652 281.474zM288 448c0-111.204 27.584-211.348 71.652-281.474-99.852 54.16-167.652 159.898-167.652 281.474s67.8 227.314 167.652 281.474c-44.068-70.126-71.652-170.27-71.652-281.474zM96 448c0-171.9 54.404-326.184 140.652-431.722-142.302 90.948-236.652 250.314-236.652 431.722s94.35 340.774 236.652 431.722c-86.248-105.538-140.652-259.822-140.652-431.722zM787.352 879.72c142.298-90.946 236.648-250.312 236.648-431.72s-94.35-340.774-236.648-431.72c86.244 105.536 140.648 259.82 140.648 431.72s-54.404 326.184-140.648 431.72z" />
<glyph unicode="&#xe91e;" glyph-name="circle-with-cross" d="M512 890.88c-237.517 0-430.080-192.563-430.080-430.080s192.563-430.080 430.080-430.080 430.080 192.563 430.080 430.080c0 237.517-192.563 430.080-430.080 430.080zM757.197 304.077l-88.525-88.525-156.672 156.723-156.723-156.672-88.525 88.525 156.774 156.672-156.723 156.723 88.525 88.474 156.672-156.672 156.723 156.723 88.525-88.525-156.774-156.723 156.723-156.723z" />
<glyph unicode="&#xe924;" glyph-name="file-empty" d="M917.806 730.924c-22.212 30.292-53.174 65.7-87.178 99.704s-69.412 64.964-99.704 87.178c-51.574 37.82-76.592 42.194-90.924 42.194h-496c-44.112 0-80-35.888-80-80v-864c0-44.112 35.888-80 80-80h736c44.112 0 80 35.888 80 80v624c0 14.332-4.372 39.35-42.194 90.924zM785.374 785.374c30.7-30.7 54.8-58.398 72.58-81.374h-153.954v153.946c22.984-17.78 50.678-41.878 81.374-72.572zM896 16c0-8.672-7.328-16-16-16h-736c-8.672 0-16 7.328-16 16v864c0 8.672 7.328 16 16 16 0 0 495.956 0.002 496 0v-224c0-17.672 14.326-32 32-32h224v-624z" />
<glyph unicode="&#xe927;" glyph-name="file-picture" d="M832 64h-640v128l192 320 263-320 185 128v-256zM832 480c0-53.020-42.98-96-96-96-53.022 0-96 42.98-96 96s42.978 96 96 96c53.020 0 96-42.98 96-96zM917.806 730.924c-22.212 30.292-53.174 65.7-87.178 99.704s-69.412 64.964-99.704 87.178c-51.574 37.82-76.592 42.194-90.924 42.194h-496c-44.112 0-80-35.888-80-80v-864c0-44.112 35.888-80 80-80h736c44.112 0 80 35.888 80 80v624c0 14.332-4.372 39.35-42.194 90.924zM785.374 785.374c30.7-30.7 54.8-58.398 72.58-81.374h-153.954v153.946c22.984-17.78 50.678-41.878 81.374-72.572zM896 16c0-8.672-7.328-16-16-16h-736c-8.672 0-16 7.328-16 16v864c0 8.672 7.328 16 16 16 0 0 495.956 0.002 496 0v-224c0-17.672 14.326-32 32-32h224v-624z" />
<glyph unicode="&#xe92c;" glyph-name="copy" d="M640 704v256h-448l-192-192v-576h384v-256h640v768h-384zM192 869.49v-101.49h-101.49l101.49 101.49zM64 256v448h192v192h320v-192l-192-192v-256h-320zM576 613.49v-101.49h-101.49l101.49 101.49zM960 0h-512v448h192v192h320v-640z" />
<glyph unicode="&#xe936;" glyph-name="price-tags" horiz-adv-x="1280" d="M1232 960h-384c-26.4 0-63.274-15.274-81.942-33.942l-476.116-476.116c-18.668-18.668-18.668-49.214 0-67.882l412.118-412.118c18.668-18.668 49.214-18.668 67.882 0l476.118 476.118c18.666 18.666 33.94 55.54 33.94 81.94v384c0 26.4-21.6 48-48 48zM992 576c-53.020 0-96 42.98-96 96s42.98 96 96 96 96-42.98 96-96-42.98-96-96-96zM128 416l544 544h-80c-26.4 0-63.274-15.274-81.942-33.942l-476.116-476.116c-18.668-18.668-18.668-49.214 0-67.882l412.118-412.118c18.668-18.668 49.214-18.668 67.882 0l30.058 30.058-416 416z" />
<glyph unicode="&#xe954;" glyph-name="printer" d="M256 896h512v-128h-512v128zM960 704h-896c-35.2 0-64-28.8-64-64v-320c0-35.2 28.794-64 64-64h192v-256h512v256h192c35.2 0 64 28.8 64 64v320c0 35.2-28.8 64-64 64zM128 512c-35.346 0-64 28.654-64 64s28.654 64 64 64 64-28.654 64-64-28.652-64-64-64zM704 64h-384v320h384v-320z" />
<glyph unicode="&#xe960;" glyph-name="download" d="M512 384l256 256h-192v256h-128v-256h-192zM744.726 488.728l-71.74-71.742 260.080-96.986-421.066-157.018-421.066 157.018 260.080 96.986-71.742 71.742-279.272-104.728v-256l512-192 512 192v256z" />
<glyph unicode="&#xe961;" glyph-name="upload" d="M448 384h128v256h192l-256 256-256-256h192zM640 528v-98.712l293.066-109.288-421.066-157.018-421.066 157.018 293.066 109.288v98.712l-384-144v-256l512-192 512 192v256z" />
<glyph unicode="&#xe96b;" glyph-name="bubble" d="M512 896c282.77 0 512-186.25 512-416 0-229.752-229.23-416-512-416-27.156 0-53.81 1.734-79.824 5.044-109.978-109.978-241.25-129.7-368.176-132.596v26.916c68.536 33.578 128 94.74 128 164.636 0 9.754-0.758 19.33-2.164 28.696-115.796 76.264-189.836 192.754-189.836 323.304 0 229.75 229.23 416 512 416z" />
<glyph unicode="&#xe9b6;" glyph-name="switch" d="M640 813.412v-135.958c36.206-15.804 69.5-38.408 98.274-67.18 60.442-60.44 93.726-140.8 93.726-226.274s-33.286-165.834-93.726-226.274c-60.44-60.44-140.798-93.726-226.274-93.726s-165.834 33.286-226.274 93.726c-60.44 60.44-93.726 140.8-93.726 226.274s33.286 165.834 93.726 226.274c28.774 28.774 62.068 51.378 98.274 67.182v135.956c-185.048-55.080-320-226.472-320-429.412 0-247.424 200.578-448 448-448 247.424 0 448 200.576 448 448 0 202.94-134.95 374.332-320 429.412zM448 960h128v-512h-128z" />
<glyph unicode="&#xe9ca;" glyph-name="earth" d="M512 960c-282.77 0-512-229.23-512-512s229.23-512 512-512 512 229.23 512 512-229.23 512-512 512zM512-0.002c-62.958 0-122.872 13.012-177.23 36.452l233.148 262.29c5.206 5.858 8.082 13.422 8.082 21.26v96c0 17.674-14.326 32-32 32-112.99 0-232.204 117.462-233.374 118.626-6 6.002-14.14 9.374-22.626 9.374h-128c-17.672 0-32-14.328-32-32v-192c0-12.122 6.848-23.202 17.69-28.622l110.31-55.156v-187.886c-116.052 80.956-192 215.432-192 367.664 0 68.714 15.49 133.806 43.138 192h116.862c8.488 0 16.626 3.372 22.628 9.372l128 128c6 6.002 9.372 14.14 9.372 22.628v77.412c40.562 12.074 83.518 18.588 128 18.588 70.406 0 137.004-16.26 196.282-45.2-4.144-3.502-8.176-7.164-12.046-11.036-36.266-36.264-56.236-84.478-56.236-135.764s19.97-99.5 56.236-135.764c36.434-36.432 85.218-56.264 135.634-56.26 3.166 0 6.342 0.080 9.518 0.236 13.814-51.802 38.752-186.656-8.404-372.334-0.444-1.744-0.696-3.488-0.842-5.224-81.324-83.080-194.7-134.656-320.142-134.656z" />
<glyph unicode="&#xe9ce;" glyph-name="eye" d="M512 768c-223.318 0-416.882-130.042-512-320 95.118-189.958 288.682-320 512-320 223.312 0 416.876 130.042 512 320-95.116 189.958-288.688 320-512 320zM764.45 598.296c60.162-38.374 111.142-89.774 149.434-150.296-38.292-60.522-89.274-111.922-149.436-150.296-75.594-48.218-162.89-73.704-252.448-73.704-89.56 0-176.858 25.486-252.452 73.704-60.158 38.372-111.138 89.772-149.432 150.296 38.292 60.524 89.274 111.924 149.434 150.296 3.918 2.5 7.876 4.922 11.86 7.3-9.96-27.328-15.41-56.822-15.41-87.596 0-141.382 114.616-256 256-256 141.382 0 256 114.618 256 256 0 30.774-5.452 60.268-15.408 87.598 3.978-2.378 7.938-4.802 11.858-7.302v0zM512 544c0-53.020-42.98-96-96-96s-96 42.98-96 96 42.98 96 96 96 96-42.982 96-96z" />
<glyph unicode="&#xe9d1;" glyph-name="eye-blocked" d="M945.942 945.942c-18.746 18.744-49.136 18.744-67.882 0l-202.164-202.164c-51.938 15.754-106.948 24.222-163.896 24.222-223.318 0-416.882-130.042-512-320 41.122-82.124 100.648-153.040 173.022-207.096l-158.962-158.962c-18.746-18.746-18.746-49.136 0-67.882 9.372-9.374 21.656-14.060 33.94-14.060s24.568 4.686 33.942 14.058l864 864c18.744 18.746 18.744 49.138 0 67.884zM416 640c42.24 0 78.082-27.294 90.92-65.196l-121.724-121.724c-37.902 12.838-65.196 48.68-65.196 90.92 0 53.020 42.98 96 96 96zM110.116 448c38.292 60.524 89.274 111.924 149.434 150.296 3.918 2.5 7.876 4.922 11.862 7.3-9.962-27.328-15.412-56.822-15.412-87.596 0-54.89 17.286-105.738 46.7-147.418l-60.924-60.924c-52.446 36.842-97.202 83.882-131.66 138.342zM768 518c0 27.166-4.256 53.334-12.102 77.898l-321.808-321.808c24.568-7.842 50.742-12.090 77.91-12.090 141.382 0 256 114.618 256 256zM830.026 670.026l-69.362-69.362c1.264-0.786 2.53-1.568 3.786-2.368 60.162-38.374 111.142-89.774 149.434-150.296-38.292-60.522-89.274-111.922-149.436-150.296-75.594-48.218-162.89-73.704-252.448-73.704-38.664 0-76.902 4.76-113.962 14.040l-76.894-76.894c59.718-21.462 123.95-33.146 190.856-33.146 223.31 0 416.876 130.042 512 320-45.022 89.916-112.118 166.396-193.974 222.026z" />
<glyph unicode="&#xea0f;" glyph-name="cross" d="M1014.662 137.34c-0.004 0.004-0.008 0.008-0.012 0.010l-310.644 310.65 310.644 310.65c0.004 0.004 0.008 0.006 0.012 0.010 3.344 3.346 5.762 7.254 7.312 11.416 4.246 11.376 1.824 24.682-7.324 33.83l-146.746 146.746c-9.148 9.146-22.45 11.566-33.828 7.32-4.16-1.55-8.070-3.968-11.418-7.31 0-0.004-0.004-0.006-0.008-0.010l-310.648-310.652-310.648 310.65c-0.004 0.004-0.006 0.006-0.010 0.010-3.346 3.342-7.254 5.76-11.414 7.31-11.38 4.248-24.682 1.826-33.83-7.32l-146.748-146.748c-9.148-9.148-11.568-22.452-7.322-33.828 1.552-4.16 3.97-8.072 7.312-11.416 0.004-0.002 0.006-0.006 0.010-0.010l310.65-310.648-310.65-310.652c-0.002-0.004-0.006-0.006-0.008-0.010-3.342-3.346-5.76-7.254-7.314-11.414-4.248-11.376-1.826-24.682 7.322-33.83l146.748-146.746c9.15-9.148 22.452-11.568 33.83-7.322 4.16 1.552 8.070 3.97 11.416 7.312 0.002 0.004 0.006 0.006 0.010 0.010l310.648 310.65 310.648-310.65c0.004-0.002 0.008-0.006 0.012-0.008 3.348-3.344 7.254-5.762 11.414-7.314 11.378-4.246 24.684-1.826 33.828 7.322l146.746 146.748c9.148 9.148 11.57 22.454 7.324 33.83-1.552 4.16-3.97 8.068-7.314 11.414z" />
<glyph unicode="" glyph-name="cross" d="M1014.662 137.34c-0.004 0.004-0.008 0.008-0.012 0.010l-310.644 310.65 310.644 310.65c0.004 0.004 0.008 0.006 0.012 0.010 3.344 3.346 5.762 7.254 7.312 11.416 4.246 11.376 1.824 24.682-7.324 33.83l-146.746 146.746c-9.148 9.146-22.45 11.566-33.828 7.32-4.16-1.55-8.070-3.968-11.418-7.31 0-0.004-0.004-0.006-0.008-0.010l-310.648-310.652-310.648 310.65c-0.004 0.004-0.006 0.006-0.010 0.010-3.346 3.342-7.254 5.76-11.414 7.31-11.38 4.248-24.682 1.826-33.83-7.32l-146.748-146.748c-9.148-9.148-11.568-22.452-7.322-33.828 1.552-4.16 3.97-8.072 7.312-11.416 0.004-0.002 0.006-0.006 0.010-0.010l310.65-310.648-310.65-310.652c-0.002-0.004-0.006-0.006-0.008-0.010-3.342-3.346-5.76-7.254-7.314-11.414-4.248-11.376-1.826-24.682 7.322-33.83l146.748-146.746c9.15-9.148 22.452-11.568 33.83-7.322 4.16 1.552 8.070 3.97 11.416 7.312 0.002 0.004 0.006 0.006 0.010 0.010l310.648 310.65 310.648-310.65c0.004-0.002 0.008-0.006 0.012-0.008 3.348-3.344 7.254-5.762 11.414-7.314 11.378-4.246 24.684-1.826 33.828 7.322l146.746 146.748c9.148 9.148 11.57 22.454 7.324 33.83-1.552 4.16-3.97 8.068-7.314 11.414z" />
<glyph unicode="wifi" glyph-name="connection" horiz-adv-x="1280" d="M640 384c105.87 0 201.87-43.066 271.402-112.598l-90.468-90.468c-46.354 46.356-110.356 75.066-180.934 75.066s-134.578-28.71-180.934-75.066l-90.468 90.468c69.532 69.532 165.532 112.598 271.402 112.598zM187.452 452.548c120.88 120.88 281.598 187.452 452.548 187.452s331.668-66.572 452.55-187.452l-90.51-90.508c-96.706 96.704-225.28 149.96-362.040 149.96-136.762 0-265.334-53.256-362.038-149.962l-90.51 90.51zM988.784 825.562c106.702-45.132 202.516-109.728 284.782-191.996v0l-90.508-90.508c-145.056 145.056-337.92 224.942-543.058 224.942-205.14 0-398-79.886-543.058-224.942l-90.51 90.51c82.268 82.266 178.082 146.862 284.784 191.994 110.504 46.738 227.852 70.438 348.784 70.438s238.278-23.7 348.784-70.438zM576 64c0 35.346 28.654 64 64 64s64-28.654 64-64c0-35.346-28.654-64-64-64s-64 28.654-64 64z" />
<glyph unicode="wave" glyph-name="feed" d="M384 448c0 70.692 57.308 128 128 128s128-57.308 128-128c0-70.692-57.308-128-128-128s-128 57.308-128 128zM664.348 729.474c99.852-54.158 167.652-159.898 167.652-281.474s-67.8-227.316-167.652-281.474c44.066 70.126 71.652 170.27 71.652 281.474s-27.586 211.348-71.652 281.474zM288 448c0-111.204 27.584-211.348 71.652-281.474-99.852 54.16-167.652 159.898-167.652 281.474s67.8 227.314 167.652 281.474c-44.068-70.126-71.652-170.27-71.652-281.474zM96 448c0-171.9 54.404-326.184 140.652-431.722-142.302 90.948-236.652 250.314-236.652 431.722s94.35 340.774 236.652 431.722c-86.248-105.538-140.652-259.822-140.652-431.722zM787.352 879.72c142.298-90.946 236.648-250.312 236.648-431.72s-94.35-340.774-236.648-431.72c86.244 105.536 140.648 259.82 140.648 431.72s-54.404 326.184-140.648 431.72z" />
<glyph unicode="views4" glyph-name="eye-blocked" d="M945.942 945.942c-18.746 18.744-49.136 18.744-67.882 0l-202.164-202.164c-51.938 15.754-106.948 24.222-163.896 24.222-223.318 0-416.882-130.042-512-320 41.122-82.124 100.648-153.040 173.022-207.096l-158.962-158.962c-18.746-18.746-18.746-49.136 0-67.882 9.372-9.374 21.656-14.060 33.94-14.060s24.568 4.686 33.942 14.058l864 864c18.744 18.746 18.744 49.138 0 67.884zM416 640c42.24 0 78.082-27.294 90.92-65.196l-121.724-121.724c-37.902 12.838-65.196 48.68-65.196 90.92 0 53.020 42.98 96 96 96zM110.116 448c38.292 60.524 89.274 111.924 149.434 150.296 3.918 2.5 7.876 4.922 11.862 7.3-9.962-27.328-15.412-56.822-15.412-87.596 0-54.89 17.286-105.738 46.7-147.418l-60.924-60.924c-52.446 36.842-97.202 83.882-131.66 138.342zM768 518c0 27.166-4.256 53.334-12.102 77.898l-321.808-321.808c24.568-7.842 50.742-12.090 77.91-12.090 141.382 0 256 114.618 256 256zM830.026 670.026l-69.362-69.362c1.264-0.786 2.53-1.568 3.786-2.368 60.162-38.374 111.142-89.774 149.434-150.296-38.292-60.522-89.274-111.922-149.436-150.296-75.594-48.218-162.89-73.704-252.448-73.704-38.664 0-76.902 4.76-113.962 14.040l-76.894-76.894c59.718-21.462 123.95-33.146 190.856-33.146 223.31 0 416.876 130.042 512 320-45.022 89.916-112.118 166.396-193.974 222.026z" />
<glyph unicode="views" glyph-name="eye" d="M512 768c-223.318 0-416.882-130.042-512-320 95.118-189.958 288.682-320 512-320 223.312 0 416.876 130.042 512 320-95.116 189.958-288.688 320-512 320zM764.45 598.296c60.162-38.374 111.142-89.774 149.434-150.296-38.292-60.522-89.274-111.922-149.436-150.296-75.594-48.218-162.89-73.704-252.448-73.704-89.56 0-176.858 25.486-252.452 73.704-60.158 38.372-111.138 89.772-149.432 150.296 38.292 60.524 89.274 111.924 149.434 150.296 3.918 2.5 7.876 4.922 11.86 7.3-9.96-27.328-15.41-56.822-15.41-87.596 0-141.382 114.616-256 256-256 141.382 0 256 114.618 256 256 0 30.774-5.452 60.268-15.408 87.598 3.978-2.378 7.938-4.802 11.858-7.302v0zM512 544c0-53.020-42.98-96-96-96s-96 42.98-96 96 42.98 96 96 96 96-42.982 96-96z" />
<glyph unicode="upload" glyph-name="upload" d="M448 384h128v256h192l-256 256-256-256h192zM640 528v-98.712l293.066-109.288-421.066-157.018-421.066 157.018 293.066 109.288v98.712l-384-144v-256l512-192 512 192v256z" />
<glyph unicode="switch" glyph-name="switch" d="M640 813.412v-135.958c36.206-15.804 69.5-38.408 98.274-67.18 60.442-60.44 93.726-140.8 93.726-226.274s-33.286-165.834-93.726-226.274c-60.44-60.44-140.798-93.726-226.274-93.726s-165.834 33.286-226.274 93.726c-60.44 60.44-93.726 140.8-93.726 226.274s33.286 165.834 93.726 226.274c28.774 28.774 62.068 51.378 98.274 67.182v135.956c-185.048-55.080-320-226.472-320-429.412 0-247.424 200.578-448 448-448 247.424 0 448 200.576 448 448 0 202.94-134.95 374.332-320 429.412zM448 960h128v-512h-128z" />
<glyph unicode="save" glyph-name="download" d="M512 384l256 256h-192v256h-128v-256h-192zM744.726 488.728l-71.74-71.742 260.080-96.986-421.066-157.018-421.066 157.018 260.080 96.986-71.742 71.742-279.272-104.728v-256l512-192 512 192v256z" />
<glyph unicode="printer" glyph-name="printer" d="M256 896h512v-128h-512v128zM960 704h-896c-35.2 0-64-28.8-64-64v-320c0-35.2 28.794-64 64-64h192v-256h512v256h192c35.2 0 64 28.8 64 64v320c0 35.2-28.8 64-64 64zM128 512c-35.346 0-64 28.654-64 64s28.654 64 64 64 64-28.654 64-64-28.652-64-64-64zM704 64h-384v320h384v-320z" />
<glyph unicode="print" glyph-name="printer" d="M256 896h512v-128h-512v128zM960 704h-896c-35.2 0-64-28.8-64-64v-320c0-35.2 28.794-64 64-64h192v-256h512v256h192c35.2 0 64 28.8 64 64v320c0 35.2-28.8 64-64 64zM128 512c-35.346 0-64 28.654-64 64s28.654 64 64 64 64-28.654 64-64-28.652-64-64-64zM704 64h-384v320h384v-320z" />
<glyph unicode="price-tags" glyph-name="price-tags" horiz-adv-x="1280" d="M1232 960h-384c-26.4 0-63.274-15.274-81.942-33.942l-476.116-476.116c-18.668-18.668-18.668-49.214 0-67.882l412.118-412.118c18.668-18.668 49.214-18.668 67.882 0l476.118 476.118c18.666 18.666 33.94 55.54 33.94 81.94v384c0 26.4-21.6 48-48 48zM992 576c-53.020 0-96 42.98-96 96s42.98 96 96 96 96-42.98 96-96-42.98-96-96-96zM128 416l544 544h-80c-26.4 0-63.274-15.274-81.942-33.942l-476.116-476.116c-18.668-18.668-18.668-49.214 0-67.882l412.118-412.118c18.668-18.668 49.214-18.668 67.882 0l30.058 30.058-416 416z" />
<glyph unicode="pictures" glyph-name="images" horiz-adv-x="1152" d="M1088 832h-64v64c0 35.2-28.8 64-64 64h-896c-35.2 0-64-28.8-64-64v-768c0-35.2 28.8-64 64-64h64v-64c0-35.2 28.8-64 64-64h896c35.2 0 64 28.8 64 64v768c0 35.2-28.8 64-64 64zM128 768v-640h-63.886c-0.040 0.034-0.082 0.076-0.114 0.116v767.77c0.034 0.040 0.076 0.082 0.114 0.114h895.77c0.040-0.034 0.082-0.076 0.116-0.116v-63.884h-768c-35.2 0-64-28.8-64-64v0zM1088 0.116c-0.034-0.040-0.076-0.082-0.116-0.116h-895.77c-0.040 0.034-0.082 0.076-0.114 0.116v767.77c0.034 0.040 0.076 0.082 0.114 0.114h895.77c0.040-0.034 0.082-0.076 0.116-0.116v-767.768zM960 608c0-53.020-42.98-96-96-96s-96 42.98-96 96 42.98 96 96 96 96-42.98 96-96zM1024 64h-768v128l224 384 256-320h64l224 192z" />
<glyph unicode="picture" glyph-name="image" d="M959.884 832c0.040-0.034 0.082-0.076 0.116-0.116v-767.77c-0.034-0.040-0.076-0.082-0.116-0.116h-895.77c-0.040 0.034-0.082 0.076-0.114 0.116v767.772c0.034 0.040 0.076 0.082 0.114 0.114h895.77zM960 896h-896c-35.2 0-64-28.8-64-64v-768c0-35.2 28.8-64 64-64h896c35.2 0 64 28.8 64 64v768c0 35.2-28.8 64-64 64v0zM832 672c0-53.020-42.98-96-96-96s-96 42.98-96 96 42.98 96 96 96 96-42.98 96-96zM896 128h-768v128l224 384 256-320h64l224 192z" />
<glyph unicode="load" glyph-name="upload" d="M448 384h128v256h192l-256 256-256-256h192zM640 528v-98.712l293.066-109.288-421.066-157.018-421.066 157.018 293.066 109.288v98.712l-384-144v-256l512-192 512 192v256z" />
<glyph unicode="images" glyph-name="images" horiz-adv-x="1152" d="M1088 832h-64v64c0 35.2-28.8 64-64 64h-896c-35.2 0-64-28.8-64-64v-768c0-35.2 28.8-64 64-64h64v-64c0-35.2 28.8-64 64-64h896c35.2 0 64 28.8 64 64v768c0 35.2-28.8 64-64 64zM128 768v-640h-63.886c-0.040 0.034-0.082 0.076-0.114 0.116v767.77c0.034 0.040 0.076 0.082 0.114 0.114h895.77c0.040-0.034 0.082-0.076 0.116-0.116v-63.884h-768c-35.2 0-64-28.8-64-64v0zM1088 0.116c-0.034-0.040-0.076-0.082-0.116-0.116h-895.77c-0.040 0.034-0.082 0.076-0.114 0.116v767.77c0.034 0.040 0.076 0.082 0.114 0.114h895.77c0.040-0.034 0.082-0.076 0.116-0.116v-767.768zM960 608c0-53.020-42.98-96-96-96s-96 42.98-96 96 42.98 96 96 96 96-42.98 96-96zM1024 64h-768v128l224 384 256-320h64l224 192z" />
<glyph unicode="image" glyph-name="image" d="M959.884 832c0.040-0.034 0.082-0.076 0.116-0.116v-767.77c-0.034-0.040-0.076-0.082-0.116-0.116h-895.77c-0.040 0.034-0.082 0.076-0.114 0.116v767.772c0.034 0.040 0.076 0.082 0.114 0.114h895.77zM960 896h-896c-35.2 0-64-28.8-64-64v-768c0-35.2 28.8-64 64-64h896c35.2 0 64 28.8 64 64v768c0 35.2-28.8 64-64 64v0zM832 672c0-53.020-42.98-96-96-96s-96 42.98-96 96 42.98 96 96 96 96-42.98 96-96zM896 128h-768v128l224 384 256-320h64l224 192z" />
<glyph unicode="house" glyph-name="home" d="M1024 369.556l-512 397.426-512-397.428v162.038l512 397.426 512-397.428zM896 384v-384h-256v256h-256v-256h-256v384l384 288z" />
<glyph unicode="home" glyph-name="home" d="M1024 369.556l-512 397.426-512-397.428v162.038l512 397.426 512-397.428zM896 384v-384h-256v256h-256v-256h-256v384l384 288z" />
<glyph unicode="globe2" glyph-name="earth" d="M512 960c-282.77 0-512-229.23-512-512s229.23-512 512-512 512 229.23 512 512-229.23 512-512 512zM512-0.002c-62.958 0-122.872 13.012-177.23 36.452l233.148 262.29c5.206 5.858 8.082 13.422 8.082 21.26v96c0 17.674-14.326 32-32 32-112.99 0-232.204 117.462-233.374 118.626-6 6.002-14.14 9.374-22.626 9.374h-128c-17.672 0-32-14.328-32-32v-192c0-12.122 6.848-23.202 17.69-28.622l110.31-55.156v-187.886c-116.052 80.956-192 215.432-192 367.664 0 68.714 15.49 133.806 43.138 192h116.862c8.488 0 16.626 3.372 22.628 9.372l128 128c6 6.002 9.372 14.14 9.372 22.628v77.412c40.562 12.074 83.518 18.588 128 18.588 70.406 0 137.004-16.26 196.282-45.2-4.144-3.502-8.176-7.164-12.046-11.036-36.266-36.264-56.236-84.478-56.236-135.764s19.97-99.5 56.236-135.764c36.434-36.432 85.218-56.264 135.634-56.26 3.166 0 6.342 0.080 9.518 0.236 13.814-51.802 38.752-186.656-8.404-372.334-0.444-1.744-0.696-3.488-0.842-5.224-81.324-83.080-194.7-134.656-320.142-134.656z" />
<glyph unicode="file5" glyph-name="file-picture" d="M832 64h-640v128l192 320 263-320 185 128v-256zM832 480c0-53.020-42.98-96-96-96-53.022 0-96 42.98-96 96s42.978 96 96 96c53.020 0 96-42.98 96-96zM917.806 730.924c-22.212 30.292-53.174 65.7-87.178 99.704s-69.412 64.964-99.704 87.178c-51.574 37.82-76.592 42.194-90.924 42.194h-496c-44.112 0-80-35.888-80-80v-864c0-44.112 35.888-80 80-80h736c44.112 0 80 35.888 80 80v624c0 14.332-4.372 39.35-42.194 90.924zM785.374 785.374c30.7-30.7 54.8-58.398 72.58-81.374h-153.954v153.946c22.984-17.78 50.678-41.878 81.374-72.572zM896 16c0-8.672-7.328-16-16-16h-736c-8.672 0-16 7.328-16 16v864c0 8.672 7.328 16 16 16 0 0 495.956 0.002 496 0v-224c0-17.672 14.326-32 32-32h224v-624z" />
<glyph unicode="file3" glyph-name="file-empty" d="M917.806 730.924c-22.212 30.292-53.174 65.7-87.178 99.704s-69.412 64.964-99.704 87.178c-51.574 37.82-76.592 42.194-90.924 42.194h-496c-44.112 0-80-35.888-80-80v-864c0-44.112 35.888-80 80-80h736c44.112 0 80 35.888 80 80v624c0 14.332-4.372 39.35-42.194 90.924zM785.374 785.374c30.7-30.7 54.8-58.398 72.58-81.374h-153.954v153.946c22.984-17.78 50.678-41.878 81.374-72.572zM896 16c0-8.672-7.328-16-16-16h-736c-8.672 0-16 7.328-16 16v864c0 8.672 7.328 16 16 16 0 0 495.956 0.002 496 0v-224c0-17.672 14.326-32 32-32h224v-624z" />
<glyph unicode="file-picture" glyph-name="file-picture" d="M832 64h-640v128l192 320 263-320 185 128v-256zM832 480c0-53.020-42.98-96-96-96-53.022 0-96 42.98-96 96s42.978 96 96 96c53.020 0 96-42.98 96-96zM917.806 730.924c-22.212 30.292-53.174 65.7-87.178 99.704s-69.412 64.964-99.704 87.178c-51.574 37.82-76.592 42.194-90.924 42.194h-496c-44.112 0-80-35.888-80-80v-864c0-44.112 35.888-80 80-80h736c44.112 0 80 35.888 80 80v624c0 14.332-4.372 39.35-42.194 90.924zM785.374 785.374c30.7-30.7 54.8-58.398 72.58-81.374h-153.954v153.946c22.984-17.78 50.678-41.878 81.374-72.572zM896 16c0-8.672-7.328-16-16-16h-736c-8.672 0-16 7.328-16 16v864c0 8.672 7.328 16 16 16 0 0 495.956 0.002 496 0v-224c0-17.672 14.326-32 32-32h224v-624z" />
<glyph unicode="file-empty" glyph-name="file-empty" d="M917.806 730.924c-22.212 30.292-53.174 65.7-87.178 99.704s-69.412 64.964-99.704 87.178c-51.574 37.82-76.592 42.194-90.924 42.194h-496c-44.112 0-80-35.888-80-80v-864c0-44.112 35.888-80 80-80h736c44.112 0 80 35.888 80 80v624c0 14.332-4.372 39.35-42.194 90.924zM785.374 785.374c30.7-30.7 54.8-58.398 72.58-81.374h-153.954v153.946c22.984-17.78 50.678-41.878 81.374-72.572zM896 16c0-8.672-7.328-16-16-16h-736c-8.672 0-16 7.328-16 16v864c0 8.672 7.328 16 16 16 0 0 495.956 0.002 496 0v-224c0-17.672 14.326-32 32-32h224v-624z" />
<glyph unicode="feed" glyph-name="feed" d="M384 448c0 70.692 57.308 128 128 128s128-57.308 128-128c0-70.692-57.308-128-128-128s-128 57.308-128 128zM664.348 729.474c99.852-54.158 167.652-159.898 167.652-281.474s-67.8-227.316-167.652-281.474c44.066 70.126 71.652 170.27 71.652 281.474s-27.586 211.348-71.652 281.474zM288 448c0-111.204 27.584-211.348 71.652-281.474-99.852 54.16-167.652 159.898-167.652 281.474s67.8 227.314 167.652 281.474c-44.068-70.126-71.652-170.27-71.652-281.474zM96 448c0-171.9 54.404-326.184 140.652-431.722-142.302 90.948-236.652 250.314-236.652 431.722s94.35 340.774 236.652 431.722c-86.248-105.538-140.652-259.822-140.652-431.722zM787.352 879.72c142.298-90.946 236.648-250.312 236.648-431.72s-94.35-340.774-236.648-431.72c86.244 105.536 140.648 259.82 140.648 431.72s-54.404 326.184-140.648 431.72z" />
<glyph unicode="eye-blocked" glyph-name="eye-blocked" d="M945.942 945.942c-18.746 18.744-49.136 18.744-67.882 0l-202.164-202.164c-51.938 15.754-106.948 24.222-163.896 24.222-223.318 0-416.882-130.042-512-320 41.122-82.124 100.648-153.040 173.022-207.096l-158.962-158.962c-18.746-18.746-18.746-49.136 0-67.882 9.372-9.374 21.656-14.060 33.94-14.060s24.568 4.686 33.942 14.058l864 864c18.744 18.746 18.744 49.138 0 67.884zM416 640c42.24 0 78.082-27.294 90.92-65.196l-121.724-121.724c-37.902 12.838-65.196 48.68-65.196 90.92 0 53.020 42.98 96 96 96zM110.116 448c38.292 60.524 89.274 111.924 149.434 150.296 3.918 2.5 7.876 4.922 11.862 7.3-9.962-27.328-15.412-56.822-15.412-87.596 0-54.89 17.286-105.738 46.7-147.418l-60.924-60.924c-52.446 36.842-97.202 83.882-131.66 138.342zM768 518c0 27.166-4.256 53.334-12.102 77.898l-321.808-321.808c24.568-7.842 50.742-12.090 77.91-12.090 141.382 0 256 114.618 256 256zM830.026 670.026l-69.362-69.362c1.264-0.786 2.53-1.568 3.786-2.368 60.162-38.374 111.142-89.774 149.434-150.296-38.292-60.522-89.274-111.922-149.436-150.296-75.594-48.218-162.89-73.704-252.448-73.704-38.664 0-76.902 4.76-113.962 14.040l-76.894-76.894c59.718-21.462 123.95-33.146 190.856-33.146 223.31 0 416.876 130.042 512 320-45.022 89.916-112.118 166.396-193.974 222.026z" />
<glyph unicode="eye" glyph-name="eye" d="M512 768c-223.318 0-416.882-130.042-512-320 95.118-189.958 288.682-320 512-320 223.312 0 416.876 130.042 512 320-95.116 189.958-288.688 320-512 320zM764.45 598.296c60.162-38.374 111.142-89.774 149.434-150.296-38.292-60.522-89.274-111.922-149.436-150.296-75.594-48.218-162.89-73.704-252.448-73.704-89.56 0-176.858 25.486-252.452 73.704-60.158 38.372-111.138 89.772-149.432 150.296 38.292 60.524 89.274 111.924 149.434 150.296 3.918 2.5 7.876 4.922 11.86 7.3-9.96-27.328-15.41-56.822-15.41-87.596 0-141.382 114.616-256 256-256 141.382 0 256 114.618 256 256 0 30.774-5.452 60.268-15.408 87.598 3.978-2.378 7.938-4.802 11.858-7.302v0zM512 544c0-53.020-42.98-96-96-96s-96 42.98-96 96 42.98 96 96 96 96-42.982 96-96z" />
<glyph unicode="earth" glyph-name="earth" d="M512 960c-282.77 0-512-229.23-512-512s229.23-512 512-512 512 229.23 512 512-229.23 512-512 512zM512-0.002c-62.958 0-122.872 13.012-177.23 36.452l233.148 262.29c5.206 5.858 8.082 13.422 8.082 21.26v96c0 17.674-14.326 32-32 32-112.99 0-232.204 117.462-233.374 118.626-6 6.002-14.14 9.374-22.626 9.374h-128c-17.672 0-32-14.328-32-32v-192c0-12.122 6.848-23.202 17.69-28.622l110.31-55.156v-187.886c-116.052 80.956-192 215.432-192 367.664 0 68.714 15.49 133.806 43.138 192h116.862c8.488 0 16.626 3.372 22.628 9.372l128 128c6 6.002 9.372 14.14 9.372 22.628v77.412c40.562 12.074 83.518 18.588 128 18.588 70.406 0 137.004-16.26 196.282-45.2-4.144-3.502-8.176-7.164-12.046-11.036-36.266-36.264-56.236-84.478-56.236-135.764s19.97-99.5 56.236-135.764c36.434-36.432 85.218-56.264 135.634-56.26 3.166 0 6.342 0.080 9.518 0.236 13.814-51.802 38.752-186.656-8.404-372.334-0.444-1.744-0.696-3.488-0.842-5.224-81.324-83.080-194.7-134.656-320.142-134.656z" />
<glyph unicode="duplicate" glyph-name="copy" d="M640 704v256h-448l-192-192v-576h384v-256h640v768h-384zM192 869.49v-101.49h-101.49l101.49 101.49zM64 256v448h192v192h320v-192l-192-192v-256h-320zM576 613.49v-101.49h-101.49l101.49 101.49zM960 0h-512v448h192v192h320v-640z" />
<glyph unicode="download" glyph-name="download" d="M512 384l256 256h-192v256h-128v-256h-192zM744.726 488.728l-71.74-71.742 260.080-96.986-421.066-157.018-421.066 157.018 260.080 96.986-71.742 71.742-279.272-104.728v-256l512-192 512 192v256z" />
<glyph unicode="cross" glyph-name="cross" d="M1014.662 137.34c-0.004 0.004-0.008 0.008-0.012 0.010l-310.644 310.65 310.644 310.65c0.004 0.004 0.008 0.006 0.012 0.010 3.344 3.346 5.762 7.254 7.312 11.416 4.246 11.376 1.824 24.682-7.324 33.83l-146.746 146.746c-9.148 9.146-22.45 11.566-33.828 7.32-4.16-1.55-8.070-3.968-11.418-7.31 0-0.004-0.004-0.006-0.008-0.010l-310.648-310.652-310.648 310.65c-0.004 0.004-0.006 0.006-0.010 0.010-3.346 3.342-7.254 5.76-11.414 7.31-11.38 4.248-24.682 1.826-33.83-7.32l-146.748-146.748c-9.148-9.148-11.568-22.452-7.322-33.828 1.552-4.16 3.97-8.072 7.312-11.416 0.004-0.002 0.006-0.006 0.010-0.010l310.65-310.648-310.65-310.652c-0.002-0.004-0.006-0.006-0.008-0.010-3.342-3.346-5.76-7.254-7.314-11.414-4.248-11.376-1.826-24.682 7.322-33.83l146.748-146.746c9.15-9.148 22.452-11.568 33.83-7.322 4.16 1.552 8.070 3.97 11.416 7.312 0.002 0.004 0.006 0.006 0.010 0.010l310.648 310.65 310.648-310.65c0.004-0.002 0.008-0.006 0.012-0.008 3.348-3.344 7.254-5.762 11.414-7.314 11.378-4.246 24.684-1.826 33.828 7.322l146.746 146.748c9.148 9.148 11.57 22.454 7.324 33.83-1.552 4.16-3.97 8.068-7.314 11.414z" />
<glyph unicode="copy" glyph-name="copy" d="M640 704v256h-448l-192-192v-576h384v-256h640v768h-384zM192 869.49v-101.49h-101.49l101.49 101.49zM64 256v448h192v192h320v-192l-192-192v-256h-320zM576 613.49v-101.49h-101.49l101.49 101.49zM960 0h-512v448h192v192h320v-640z" />
<glyph unicode="connection" glyph-name="connection" horiz-adv-x="1280" d="M640 384c105.87 0 201.87-43.066 271.402-112.598l-90.468-90.468c-46.354 46.356-110.356 75.066-180.934 75.066s-134.578-28.71-180.934-75.066l-90.468 90.468c69.532 69.532 165.532 112.598 271.402 112.598zM187.452 452.548c120.88 120.88 281.598 187.452 452.548 187.452s331.668-66.572 452.55-187.452l-90.51-90.508c-96.706 96.704-225.28 149.96-362.040 149.96-136.762 0-265.334-53.256-362.038-149.962l-90.51 90.51zM988.784 825.562c106.702-45.132 202.516-109.728 284.782-191.996v0l-90.508-90.508c-145.056 145.056-337.92 224.942-543.058 224.942-205.14 0-398-79.886-543.058-224.942l-90.51 90.51c82.268 82.266 178.082 146.862 284.784 191.994 110.504 46.738 227.852 70.438 348.784 70.438s238.278-23.7 348.784-70.438zM576 64c0 35.346 28.654 64 64 64s64-28.654 64-64c0-35.346-28.654-64-64-64s-64 28.654-64 64z" />
<glyph unicode="comment" glyph-name="bubble" d="M512 896c282.77 0 512-186.25 512-416 0-229.752-229.23-416-512-416-27.156 0-53.81 1.734-79.824 5.044-109.978-109.978-241.25-129.7-368.176-132.596v26.916c68.536 33.578 128 94.74 128 164.636 0 9.754-0.758 19.33-2.164 28.696-115.796 76.264-189.836 192.754-189.836 323.304 0 229.75 229.23 416 512 416z" />
<glyph unicode="cancel" glyph-name="cross" d="M1014.662 137.34c-0.004 0.004-0.008 0.008-0.012 0.010l-310.644 310.65 310.644 310.65c0.004 0.004 0.008 0.006 0.012 0.010 3.344 3.346 5.762 7.254 7.312 11.416 4.246 11.376 1.824 24.682-7.324 33.83l-146.746 146.746c-9.148 9.146-22.45 11.566-33.828 7.32-4.16-1.55-8.070-3.968-11.418-7.31 0-0.004-0.004-0.006-0.008-0.010l-310.648-310.652-310.648 310.65c-0.004 0.004-0.006 0.006-0.010 0.010-3.346 3.342-7.254 5.76-11.414 7.31-11.38 4.248-24.682 1.826-33.83-7.32l-146.748-146.748c-9.148-9.148-11.568-22.452-7.322-33.828 1.552-4.16 3.97-8.072 7.312-11.416 0.004-0.002 0.006-0.006 0.010-0.010l310.65-310.648-310.65-310.652c-0.002-0.004-0.006-0.006-0.008-0.010-3.342-3.346-5.76-7.254-7.314-11.414-4.248-11.376-1.826-24.682 7.322-33.83l146.748-146.746c9.15-9.148 22.452-11.568 33.83-7.322 4.16 1.552 8.070 3.97 11.416 7.312 0.002 0.004 0.006 0.006 0.010 0.010l310.648 310.65 310.648-310.65c0.004-0.002 0.008-0.006 0.012-0.008 3.348-3.344 7.254-5.762 11.414-7.314 11.378-4.246 24.684-1.826 33.828 7.322l146.746 146.748c9.148 9.148 11.57 22.454 7.324 33.83-1.552 4.16-3.97 8.068-7.314 11.414z" />
<glyph unicode="bubble" glyph-name="bubble" d="M512 896c282.77 0 512-186.25 512-416 0-229.752-229.23-416-512-416-27.156 0-53.81 1.734-79.824 5.044-109.978-109.978-241.25-129.7-368.176-132.596v26.916c68.536 33.578 128 94.74 128 164.636 0 9.754-0.758 19.33-2.164 28.696-115.796 76.264-189.836 192.754-189.836 323.304 0 229.75 229.23 416 512 416z" />
</font>
</defs>
</svg>
